# xmcd
#
# Track frame offsets:
#	150
#	13670
#	28414
#	38514
#	48024
#	64887
#	78361
#	93889
#	106166
#	122746
#	145779
#	192329
#	205894
#
# Disc length: 3106 seconds
#
# Revision: 2
# Processed by: cddbd v1.5.1PL0 Copyright (c) Steve Scherf et al.
# Submitted via: EasyCDDAExtractor 7.1.0.1
#
DISCID=a60c200d
DTITLE=Rock Mobsters - Balls N All - Live at the George Bass Hotel
DYEAR=1900
DGENRE=Blues
TTITLE0=What you want me to do
TTITLE1=Bad Boy
TTITLE2=Country Farm
TTITLE3=Trouble
TTITLE4=Beboppalula
TTITLE5=Baby please don't go
TTITLE6=it ain't easy being white
TTITLE7=Messing with the kid
TTITLE8=Rock this Town
TTITLE9=New Orleans
TTITLE10=Boogie
TTITLE11=Black Betty
TTITLE12=Gloria
EXTD=
EXTT0=
EXTT1=
EXTT2=
EXTT3=
EXTT4=
EXTT5=
EXTT6=
EXTT7=
EXTT8=
EXTT9=
EXTT10=
EXTT11=
EXTT12=
PLAYORDER=
